<?xml version="1.0" encoding="UTF-8"?>
<svg version="1.1" xmlns="http://www.w3.org/2000/svg" width="300" height="300">
<path d="M0 0 C9.9355094 8.57731198 16.02766652 18.34081207 20.19140625 30.83203125 C20.71347656 30.45691406 21.23554688 30.08179688 21.7734375 29.6953125 C36.41658511 19.51434997 50.58917048 16.3583973 68.19140625 18.83203125 C72.06921367 19.80388869 75.57916045 21.12977484 79.19140625 22.83203125 C79.95710937 23.18136719 80.7228125 23.53070313 81.51171875 23.890625 C95.66465056 31.01640426 104.7119809 43.29374169 110.19140625 57.83203125 C113.89948987 70.58174342 112.83508165 84.85596074 107.19140625 96.83203125 C106.66740234 97.98058594 106.66740234 97.98058594 106.1328125 99.15234375 C99.00104022 113.31717866 86.73014604 122.33318704 72.19140625 127.83203125 C62.06467847 130.88678798 51.57896594 129.63608922 41.19140625 128.83203125 C41.33449219 130.24742187 41.33449219 130.24742187 41.48046875 131.69140625 C42.94159971 148.61334155 39.88368052 162.67164318 29.265625 176.37109375 C18.65855682 188.95575092 3.38742429 195.3974372 -12.80859375 196.83203125 C-30.39040157 198.15440942 -45.48688864 194.16197284 -59.18359375 182.58203125 C-69.68024036 172.54546493 -75.68914542 159.24708123 -76.80859375 144.83203125 C-76.98117974 126.78720718 -71.10158337 112.85241671 -58.80859375 99.83203125 C-59.55882812 99.54070312 -60.3090625 99.249375 -61.08203125 98.94921875 C-76.60538444 92.73205714 -87.95589895 84.96107628 -95.80859375 69.83203125 C-96.19917969 69.10242188 -96.58976562 68.3728125 -96.9921875 67.62109375 C-103.59904901 54.21376308 -102.85792693 37.89204834 -98.87109375 23.765625 C-93.15388131 7.98023331 -83.23352122 -2.97491896 -68.30859375 -10.4140625 C-46.410934 -19.99428864 -18.60883152 -14.36425799 0 0 Z " fill="#BB2121" transform="translate(154.80859375,73.16796875)"/>
<path d="M0 0 C1.125 1.9375 1.125 1.9375 2 4 C2.5775 4.5775 3.155 5.155 3.75 5.75 C5.64159851 7.64159851 6.93818064 9.3208091 8.4375 11.5 C11.89609635 16.25781001 16.19212056 20.01360646 20.59350586 23.875 C24.89956985 27.69870956 24.89956985 27.69870956 26 31 C26.66 31 27.32 31 28 31 C29.01866229 32.65532623 30.01810813 34.32260138 31 36 C31.66 36.33 32.32 36.66 33 37 C37.13743861 49.24294701 35.11188036 63.40436085 30 75 C24.21444947 86.63977228 16.34030286 94.7235029 5 101 C4.29359375 101.40089844 3.5871875 101.80179687 2.859375 102.21484375 C-10.90902879 109.17787239 -30.38294669 110.38116209 -45.06640625 106.09765625 C-60.8346826 100.19767535 -71.76530323 90.50848256 -79.24609375 75.5 C-85.33358531 61.58573357 -85.52741012 45.98285266 -80.2265625 31.77734375 C-76.99053597 24.44990787 -72.81831473 18.40116361 -67.3203125 12.59375 C-65.7873487 11.08824262 -65.7873487 11.08824262 -66 9 C-62.54501753 6.69667836 -59.22654818 5.92882877 -55.25 5 C-53.8590935 4.66784323 -52.4684655 4.33451801 -51.078125 4 C-50.39508301 3.8362085 -49.71204102 3.67241699 -49.00830078 3.50366211 C-47.10115151 3.02536781 -45.20988382 2.48500904 -43.3203125 1.94140625 C-39.58518253 0.88238705 -35.85399557 0.16213514 -32.0390625 -0.53515625 C-30.01666471 -0.80591773 -30.01666471 -0.80591773 -29 -2 C-19.59199773 -3.69344041 -8.38975955 -5.16196284 0 0 Z " fill="#2172BB" transform="translate(162,162)"/>
<path d="M0 0 C0.76570313 0.34933594 1.53140625 0.69867188 2.3203125 1.05859375 C16.47324431 8.18437301 25.52057465 20.46171044 31 35 C34.70808362 47.74971217 33.6436754 62.02392949 28 74 C27.47599609 75.14855469 27.47599609 75.14855469 26.94140625 76.3203125 C19.81562699 90.47324431 7.53828956 99.52057465 -7 105 C-16.81395417 107.85425759 -29.12718672 107.94673253 -39 105 C-39 104.34 -39 103.68 -39 103 C-39.9590625 102.62875 -39.9590625 102.62875 -40.9375 102.25 C-43 101 -43 101 -43.75 98.875 C-43.8325 98.25625 -43.915 97.6375 -44 97 C-44.66 97 -45.32 97 -46 97 C-47.33984375 95.6015625 -47.33984375 95.6015625 -48.9375 93.625 C-52.73549751 89.12485169 -56.99653053 85.33396942 -61.44921875 81.4921875 C-64.14347028 78.85982537 -66.08519374 76.23768177 -68 73 C-68 72.34 -68 71.68 -68 71 C-68.99 70.67 -69.98 70.34 -71 70 C-71.268125 69.38125 -71.53625 68.7625 -71.8125 68.125 C-73.51576924 65.07704451 -75.8737675 64.35923152 -79 63 C-78.71512349 60.95737483 -78.42177949 58.91592973 -78.125 56.875 C-77.88136719 55.16957031 -77.88136719 55.16957031 -77.6328125 53.4296875 C-77.02106605 50.1141728 -76.11112742 47.17861807 -75 44 C-74.58474346 42.59693108 -74.17644499 41.19179243 -73.7734375 39.78515625 C-69.05927874 23.67006455 -64.34043766 9.78882689 -48.9609375 1.328125 C-33.49849721 -6.42154674 -15.81324588 -7.45192897 0 0 Z " fill="#A5BB21" transform="translate(234,96)"/>
<path d="M0 0 C0.33 0 0.66 0 1 0 C1.22835776 6.62237497 0.86880523 11.33836831 -3.0625 16.9375 C-5.29699682 20.46944659 -5.51107418 22.87905377 -6 27 C-6.88285024 30.04211046 -7.94253859 33.01487455 -9 36 C-9.309375 36.969375 -9.61875 37.93875 -9.9375 38.9375 C-10.288125 39.948125 -10.63875 40.95875 -11 42 C-11.28746094 42.83144531 -11.57492188 43.66289062 -11.87109375 44.51953125 C-12.20238281 45.42058594 -12.53367188 46.32164062 -12.875 47.25 C-13.18179688 48.10078125 -13.48859375 48.9515625 -13.8046875 49.828125 C-15.20448428 52.37154659 -16.32567644 52.99293255 -19 54 C-18.71512349 51.95737483 -18.42177949 49.91592973 -18.125 47.875 C-17.88136719 46.16957031 -17.88136719 46.16957031 -17.6328125 44.4296875 C-17.02106605 41.1141728 -16.11112742 38.17861807 -15 35 C-14.58474346 33.59693108 -14.17644499 32.19179243 -13.7734375 30.78515625 C-6.71681879 6.71681879 -6.71681879 6.71681879 0 0 Z " fill="#AC9F21" transform="translate(174,105)"/>
<path d="M0 0 C0 3.82059127 -1.29712422 5.64493796 -3.125 9 C-7.31598289 16.98078135 -9.86382419 25.34958628 -12.38964844 33.97412109 C-12.915026 35.7179543 -13.50073673 37.4434048 -14.09765625 39.1640625 C-15.07185103 42.22581752 -15.63140662 45.20189969 -16.125 48.375 C-16.29257813 49.43460938 -16.46015625 50.49421875 -16.6328125 51.5859375 C-16.75398437 52.38257813 -16.87515625 53.17921875 -17 54 C-17.33 54 -17.66 54 -18 54 C-18.49551113 35.39080431 -15.45268201 18.45656187 -3 4 C-1.99248312 2.67233757 -0.99065177 1.34029357 0 0 Z " fill="#BB4721" transform="translate(173,104)"/>
<path d="M0 0 C1.875 0.25 1.875 0.25 4 1 C5 2.8125 5 2.8125 6 5 C6.5775 5.5775 7.155 6.155 7.75 6.75 C9.64159851 8.64159851 10.93818064 10.3208091 12.4375 12.5 C15.89609635 17.25781001 20.19212056 21.01360646 24.59350586 24.875 C28.89956985 28.69870956 28.89956985 28.69870956 30 32 C30.66 32 31.32 32 32 32 C33.01866229 33.65532623 34.01810813 35.32260138 35 37 C35.99 37.495 35.99 37.495 37 38 C36.67 38.99 36.34 39.98 36 41 C8.40715268 17.22145805 8.40715268 17.22145805 4 4 C3.34 4 2.68 4 2 4 C1.34 2.68 0.68 1.36 0 0 Z " fill="#6C9498" transform="translate(158,161)"/>
<path d="M0 0 C-0.33 0.66 -0.66 1.32 -1 2 C-2.87915039 2.54663086 -2.87915039 2.54663086 -5.34765625 2.96484375 C-6.25596191 3.12355957 -7.16426758 3.28227539 -8.10009766 3.44580078 C-9.56648682 3.68919189 -9.56648682 3.68919189 -11.0625 3.9375 C-13.07165005 4.28755689 -15.08076437 4.63781896 -17.08984375 4.98828125 C-18.08870605 5.15924316 -19.08756836 5.33020508 -20.11669922 5.50634766 C-24.12326908 6.19231584 -28.12555709 6.89873655 -32.125 7.625 C-33.98511719 7.95371094 -33.98511719 7.95371094 -35.8828125 8.2890625 C-38.88972926 8.82934781 -38.88972926 8.82934781 -40.9453125 10.046875 C-44.08534808 11.50346945 -47.34453703 11.47049884 -50.75 11.625 C-51.44738281 11.66367188 -52.14476563 11.70234375 -52.86328125 11.7421875 C-54.57510818 11.83598624 -56.28751682 11.91906174 -58 12 C-57.67 11.34 -57.34 10.68 -57 10 C-54.45526298 9.24073115 -51.95929438 8.58964292 -49.375 8 C-47.96587118 7.66782967 -46.55701411 7.33450428 -45.1484375 7 C-44.10502197 6.75431274 -44.10502197 6.75431274 -43.04052734 6.50366211 C-41.11910954 6.02939973 -39.21475022 5.48749715 -37.3125 4.94140625 C-33.58022213 3.88069992 -29.85171349 3.16171802 -26.0390625 2.46484375 C-24.01666471 2.19408227 -24.01666471 2.19408227 -23 1 C-15.3889627 -0.36998671 -7.70289087 -0.09026825 0 0 Z " fill="#934F7F" transform="translate(156,159)"/>
<path d="M0 0 C6.90673809 2.69531242 10.6973049 7.90575346 15 13.6875 C16.81170612 15.7822852 18.14981938 16.79867573 20.4375 18.25 C24.23106014 20.80070211 25.89180915 23.85422592 27.859375 27.9140625 C29.01383794 30.02530636 30.28853976 31.33621274 32 33 C32.6875 35.1875 32.6875 35.1875 33 37 C31.0625 36.25 31.0625 36.25 29 35 C28.25 32.875 28.25 32.875 28 31 C27.34 31 26.68 31 26 31 C24.66015625 29.6015625 24.66015625 29.6015625 23.0625 27.625 C19.26450249 23.12485169 15.00346947 19.33396942 10.55078125 15.4921875 C7.85652972 12.85982537 5.91480626 10.23768177 4 7 C4 6.34 4 5.68 4 5 C3.01 4.67 2.02 4.34 1 4 C0.3125 1.9375 0.3125 1.9375 0 0 Z " fill="#97B158" transform="translate(162,162)"/>
<path d="M0 0 C0.66 0 1.32 0 2 0 C2.66 1.65 3.32 3.3 4 5 C4.66 5 5.32 5 6 5 C8.00422773 7.69318101 9.71004879 10.16880653 10.8203125 13.3515625 C15.26636097 23.33308853 26.60631055 31.37879994 35 38 C34.01 38.495 34.01 38.495 33 39 C18.94284379 29.00057961 5.00190796 17.19405862 0 0 Z " fill="#437FB1" transform="translate(156,160)"/>
<path d="M0 0 C-6.08171216 2.48377976 -11.98518768 3.94671068 -18.4375 5.125 C-20.22849521 5.457559 -22.01890011 5.79331871 -23.80859375 6.1328125 C-24.59032959 6.27605957 -25.37206543 6.41930664 -26.17749023 6.56689453 C-28.00854959 6.83372878 -28.00854959 6.83372878 -29 8 C-31.87603739 8.37951834 -34.73978161 8.70920634 -37.625 9 C-43.10233309 9.56815124 -48.55374198 10.18233124 -54 11 C-54.33 10.34 -54.66 9.68 -55 9 C-50.53529044 7.67470908 -46.01247539 7.68458469 -41.38671875 7.4765625 C-37.519921 6.93244563 -34.58192579 5.53676171 -31 4 C-28.08594778 3.30700955 -25.15065995 2.86596922 -22.1875 2.4375 C-20.59613172 2.19284883 -19.00498312 1.94676424 -17.4140625 1.69921875 C-16.65512695 1.58239746 -15.89619141 1.46557617 -15.11425781 1.34521484 C-11.66147078 0.78144569 -8.25404183 0.02739598 -4.84765625 -0.765625 C-3 -1 -3 -1 0 0 Z " fill="#5B68AB" transform="translate(151,162)"/>
<path d="M0 0 C0 0.33 0 0.66 0 1 C-0.6612085 1.05534912 -1.32241699 1.11069824 -2.00366211 1.16772461 C-4.9820238 1.41965715 -7.95974625 1.67848502 -10.9375 1.9375 C-11.97841797 2.02451172 -13.01933594 2.11152344 -14.09179688 2.20117188 C-15.08115234 2.28818359 -16.07050781 2.37519531 -17.08984375 2.46484375 C-18.00628662 2.543396 -18.92272949 2.62194824 -19.86694336 2.70288086 C-21.97963826 2.77870751 -21.97963826 2.77870751 -23 4 C-25.51859464 4.49244607 -28.03323051 4.94495373 -30.5625 5.375 C-37.18389856 6.54029022 -37.18389856 6.54029022 -43.5625 8.625 C-47.18883528 10.07553411 -50.14498287 10.59843572 -54 11 C-51.72386445 8.38721447 -49.88557535 7.41074314 -46.5703125 6.46484375 C-45.69922852 6.2136377 -44.82814453 5.96243164 -43.93066406 5.70361328 C-42.54186035 5.32438721 -42.54186035 5.32438721 -41.125 4.9375 C-40.17334961 4.67437012 -39.22169922 4.41124023 -38.24121094 4.14013672 C-25.32384089 0.64854043 -13.30607073 -0.28683745 0 0 Z " fill="#AC3958" transform="translate(155,158)"/>
<path d="M0 0 C0.66 0.33 1.32 0.66 2 1 C-1.19861831 3.71843832 -4.17787677 4.87925396 -8.1875 6.0625 C-9.25355469 6.38347656 -10.31960937 6.70445312 -11.41796875 7.03515625 C-20.15783704 9.38929744 -28.51712494 10.51429953 -37.5625 11.125 C-39.36170898 11.25455078 -39.36170898 11.25455078 -41.19726562 11.38671875 C-44.13114168 11.59711624 -47.06530611 11.80139489 -50 12 C-47.0590292 10.0393528 -46.13802494 9.70720875 -42.8046875 9.40234375 C-42.00675781 9.32306641 -41.20882812 9.24378906 -40.38671875 9.16210938 C-39.14341797 9.05092773 -39.14341797 9.05092773 -37.875 8.9375 C-32.5088798 8.90982371 -32.5088798 8.90982371 -28 7 C-26.61193143 6.67013615 -25.21195257 6.38996719 -23.80859375 6.1328125 C-22.51405273 5.88724609 -22.51405273 5.88724609 -21.19335938 5.63671875 C-19.38395257 5.30074102 -17.57406796 4.96732432 -15.76367188 4.63671875 C-11.49829958 3.82336616 -7.51505364 2.91068402 -3.47265625 1.3046875 C-2.32667969 0.87414062 -1.18070313 0.44359375 0 0 Z " fill="#3B6EB5" transform="translate(151,161)"/>
<path d="M0 0 C10.04111695 5.42220315 19.90195989 13.9209962 24 25 C23.67 25.99 23.34 26.98 23 28 C22.67128906 27.35933594 22.34257812 26.71867187 22.00390625 26.05859375 C18.76480334 20.16851772 15.57702758 16.53919015 10.11328125 12.6640625 C6.98861759 10.20360646 5.19669068 7.29503602 3 4 C2.01 3.34 1.02 2.68 0 2 C0 1.34 0 0.68 0 0 Z " fill="#A1B937" transform="translate(168,165)"/>
<path d="M0 0 C1.875 0.25 1.875 0.25 4 1 C5 2.8125 5 2.8125 6 5 C6.5775 5.5775 7.155 6.155 7.75 6.75 C9.64159851 8.64159851 10.93818064 10.3208091 12.4375 12.5 C15.90263065 17.27918019 20.23747009 21.03108475 24.68139648 24.875 C26.17373878 26.19249727 27.59340672 27.59131979 29 29 C29 29.99 29 30.98 29 32 C28.49210937 31.46890625 27.98421875 30.9378125 27.4609375 30.390625 C23.09857161 25.88208361 23.09857161 25.88208361 18.0625 22.1875 C11.87363093 17.76687923 6.47059062 11.24093316 4 4 C3.34 4 2.68 4 2 4 C1.34 2.68 0.68 1.36 0 0 Z " fill="#779A8E" transform="translate(158,161)"/>
<path d="M0 0 C0.33 0 0.66 0 1 0 C0.61310526 8.39561586 -1.53938927 15.99845843 -4 24 C-4.58400465 25.95813324 -5.16742571 27.91644073 -5.75 29.875 C-6.16568468 31.25029719 -6.58192708 32.62542692 -7 34 C-7.66 33.67 -8.32 33.34 -9 33 C-8.71465784 31.12402711 -8.42141506 29.2492552 -8.125 27.375 C-7.96257812 26.33085937 -7.80015625 25.28671875 -7.6328125 24.2109375 C-6.99939599 20.99693523 -6.09125072 18.0866806 -5 15 C-4.56789966 13.71174429 -4.1383465 12.42263226 -3.7109375 11.1328125 C-2.47395833 7.421875 -1.23697917 3.7109375 0 0 Z " fill="#B27D21" transform="translate(164,125)"/>
<path d="M0 0 C0 3.43973591 -0.85646759 5.24374947 -2.25 8.375 C-5.6484029 16.32069768 -8.43221919 24.48695019 -10 33 C-10.33 33 -10.66 33 -11 33 C-11.66104827 21.54182993 -8.1677471 11.58663755 -2 2 C-1.34 1.34 -0.68 0.68 0 0 Z " fill="#BA5D21" transform="translate(169,112)"/>
<path d="M0 0 C0 0.33 0 0.66 0 1 C-0.64026123 1.11593506 -1.28052246 1.23187012 -1.94018555 1.35131836 C-4.85604195 1.87957808 -7.77177194 2.40853239 -10.6875 2.9375 C-11.69490234 3.11990234 -12.70230469 3.30230469 -13.74023438 3.49023438 C-15.20493164 3.75610352 -15.20493164 3.75610352 -16.69921875 4.02734375 C-17.59471436 4.18968506 -18.49020996 4.35202637 -19.4128418 4.51928711 C-21.17572019 4.84684279 -22.9352636 5.19275389 -24.69140625 5.5546875 C-26.96455989 5.99316384 -29.00251446 6.1016523 -31.3125 6.0625 C-33.1378125 6.0315625 -33.1378125 6.0315625 -35 6 C-24.94176609 0.63560858 -11.21193252 -0.4484773 0 0 Z " fill="#7C5C97" transform="translate(155,160)"/>
<path d="M0 0 C1.62103611 1.3796052 3.2402701 2.76137093 4.8515625 4.15234375 C6.35754823 5.44749148 7.87414622 6.73035344 9.3984375 8.00390625 C10.19507813 8.68324219 10.99171875 9.36257812 11.8125 10.0625 C12.56144531 10.69285156 13.31039062 11.32320312 14.08203125 11.97265625 C16.18732414 14.19800658 17.05325332 16.10966756 18 19 C16.35760535 17.59712123 14.71599004 16.19332071 13.078125 14.78515625 C11.67556545 13.58032596 10.26921353 12.37989834 8.859375 11.18359375 C7.81523437 10.28833984 7.81523437 10.28833984 6.75 9.375 C6.10546875 8.82585937 5.4609375 8.27671875 4.796875 7.7109375 C2.9249414 5.92853116 1.4253147 4.15556852 0 2 C0 1.34 0 0.68 0 0 Z " fill="#87A57A" transform="translate(168,170)"/>
<path d="M0 0 C1.22156872 3.66470616 0.62833432 4.63237688 -0.8125 8.125 C-1.16957031 9.01445313 -1.52664062 9.90390625 -1.89453125 10.8203125 C-3 13 -3 13 -5 14 C-6.04808041 15.97522846 -7.0520411 17.97481509 -8 20 C-9.19214991 16.48407778 -9.02466954 16.05547667 -7.3828125 12.36328125 C-6.64258451 11.0061966 -5.8894712 9.65607732 -5.125 8.3125 C-4.74730469 7.62349609 -4.36960938 6.93449219 -3.98046875 6.22460938 C-1.20858516 1.20858516 -1.20858516 1.20858516 0 0 Z " fill="#AF8B21" transform="translate(174,105)"/>
<path d="M0 0 C0.66 0 1.32 0 2 0 C2.66 1.65 3.32 3.3 4 5 C4.66 5 5.32 5 6 5 C10 10.41176471 10 10.41176471 10 13 C8.68 13 7.36 13 6 13 C4.99491199 11.21118264 3.99607264 9.41885304 3 7.625 C2.1646875 6.12839844 2.1646875 6.12839844 1.3125 4.6015625 C0 2 0 2 0 0 Z " fill="#5386A9" transform="translate(156,160)"/>
<path d="M0 0 C6.90956173 5.64045856 12.51492906 11.9791092 18 19 C14.2285078 17.43727522 11.84402385 15.07921327 9 12.1875 C8.154375 11.33542969 7.30875 10.48335937 6.4375 9.60546875 C0 2.72435897 0 2.72435897 0 0 Z " fill="#5B8AA5" transform="translate(166,173)"/>
<path d="M0 0 C3.08914085 0.33097938 4.0026931 1.00284699 6.1875 3.3125 C7.79407709 5.69466602 8.58574686 7.20379133 9 10 C7.0625 9.25 7.0625 9.25 5 8 C4.25 5.875 4.25 5.875 4 4 C3.34 4 2.68 4 2 4 C1.34 2.68 0.68 1.36 0 0 Z " fill="#8CAA6E" transform="translate(186,189)"/>
<path d="M0 0 C-1.24176695 0.70226141 -2.49385599 1.38629109 -3.75 2.0625 C-4.79414062 2.63677734 -4.79414062 2.63677734 -5.859375 3.22265625 C-8.36140628 4.1312406 -9.5332355 3.88336837 -12 3 C-10.5682384 2.30062798 -9.12932968 1.61587282 -7.6875 0.9375 C-6.48673828 0.36322266 -6.48673828 0.36322266 -5.26171875 -0.22265625 C-3 -1 -3 -1 0 0 Z " fill="#B33046" transform="translate(113,165)"/>
<path d="M0 0 C3.80666984 1.44390925 5.26602582 3.34952803 7 7 C6.67 7.66 6.34 8.32 6 9 C2.91910327 6.22719294 1.31224548 3.93673644 0 0 Z " fill="#9BB44E" transform="translate(182,181)"/>
<path d="M0 0 C-3.53411321 2.12046792 -6.94393835 2.53199289 -11 3 C-11.33 2.34 -11.66 1.68 -12 1 C-8.0186217 -0.3271261 -4.14954773 -0.06915913 0 0 Z " fill="#6C62A0" transform="translate(108,170)"/>
<path d="M0 0 C0.75 1.5625 0.75 1.5625 1 4 C-0.13084437 6.50286409 -1.52139516 8.67007722 -3 11 C-3.75 9.4375 -3.75 9.4375 -4 7 C-2.86915563 4.49713591 -1.47860484 2.32992278 0 0 Z " fill="#B27B21" transform="translate(169,114)"/>
<path d="M0 0 C3.45925163 1.2491742 6.14693203 2.67527795 9 5 C8.67 5.99 8.34 6.98 8 8 C6.66372225 6.85760183 5.33104612 5.71098945 4 4.5625 C3.2575 3.92441406 2.515 3.28632813 1.75 2.62890625 C1.1725 2.09136719 0.595 1.55382812 0 1 C0 0.67 0 0.34 0 0 Z " fill="#5A8AA4" transform="translate(186,194)"/>
<path d="M0 0 C3.3 0 6.6 0 10 0 C10 0.33 10 0.66 10 1 C1.57142857 3.28571429 1.57142857 3.28571429 -3 3 C-2.01 2.67 -1.02 2.34 0 2 C0 1.34 0 0.68 0 0 Z " fill="#526BAF" transform="translate(128,165)"/>
<path d="M0 0 C4.28324091 2.51407619 6.64531705 4.12314139 8 9 C6.84775972 8.07038578 5.70340824 7.1309875 4.5625 6.1875 C3.60537109 5.40439453 3.60537109 5.40439453 2.62890625 4.60546875 C1 3 1 3 0 0 Z " fill="#8EAB6E" transform="translate(178,180)"/>
<path d="M0 0 C1.875 0.25 1.875 0.25 4 1 C5.125 3 5.125 3 6 5 C6.66 5.33 7.32 5.66 8 6 C7.67 6.66 7.34 7.32 7 8 C6.01 7.34 5.02 6.68 4 6 C4 5.34 4 4.68 4 4 C3.34 4 2.68 4 2 4 C1.34 2.68 0.68 1.36 0 0 Z " fill="#83A27F" transform="translate(158,161)"/>
</svg>
